# Blender v3.2.1 OBJ File: ''
# www.blender.org
mtllib barricade.mtl
o Cube
v -0.885304 0.787944 -1.748812
v -0.885304 0.029711 -1.748812
v -1.268604 0.715588 -1.748812
v -1.788244 0.029711 -1.748812
v -0.451470 0.029711 0.000000
v 0.451470 0.787944 0.000000
v 0.068169 0.715588 0.000000
v 0.451470 0.029711 0.000000
v -0.218527 0.715588 -0.907074
v 0.164774 0.029711 -0.907074
v -0.738167 0.029711 -0.907074
v 0.164774 0.787944 -0.907074
v -0.503974 0.029711 -0.467418
v 0.398966 0.787944 -0.467418
v 0.015666 0.715588 -0.467418
v 0.398966 0.029711 -0.467418
v -0.612306 0.715588 -1.357476
v -0.229005 0.029711 -1.357476
v -1.131946 0.029711 -1.357476
v -0.229005 0.787944 -1.357476
v -0.885304 0.787944 1.748812
v -0.885304 0.029711 1.748812
v -1.268604 0.715588 1.748812
v -1.788244 0.029711 1.748812
v -0.218527 0.715588 0.907074
v 0.164774 0.029711 0.907074
v -0.738167 0.029711 0.907074
v 0.164774 0.787944 0.907074
v -0.503974 0.029711 0.467418
v 0.398966 0.787944 0.467418
v 0.015666 0.715588 0.467418
v 0.398966 0.029711 0.467418
v -0.612306 0.715588 1.357476
v -0.229005 0.029711 1.357476
v -1.131946 0.029711 1.357476
v -0.229005 0.787944 1.357476
vt 0.375000 0.218750
vt 0.625000 0.218750
vt 0.625000 0.250000
vt 0.375000 0.250000
vt 0.625000 0.500000
vt 0.375000 0.500000
vt 0.375000 0.593750
vt 0.625000 0.593750
vt 0.625000 0.625000
vt 0.375000 0.625000
vt 0.875000 0.593750
vt 0.875000 0.625000
vt 0.625000 0.531250
vt 0.875000 0.531250
vt 0.875000 0.562500
vt 0.625000 0.562500
vt 0.375000 0.531250
vt 0.375000 0.562500
vt 0.375000 0.156250
vt 0.625000 0.156250
vt 0.625000 0.187500
vt 0.375000 0.187500
vt 0.375000 0.125000
vt 0.625000 0.125000
vt 0.875000 0.500000
vt 0.375000 0.218750
vt 0.375000 0.250000
vt 0.625000 0.250000
vt 0.625000 0.218750
vt 0.375000 0.500000
vt 0.625000 0.500000
vt 0.375000 0.593750
vt 0.625000 0.593750
vt 0.875000 0.593750
vt 0.625000 0.531250
vt 0.625000 0.562500
vt 0.875000 0.562500
vt 0.875000 0.531250
vt 0.375000 0.531250
vt 0.375000 0.562500
vt 0.375000 0.156250
vt 0.375000 0.187500
vt 0.625000 0.187500
vt 0.625000 0.156250
vt 0.875000 0.500000
vn -0.4775 0.3617 0.8007
vn 0.0000 0.0000 -1.0000
vn 0.9938 0.0000 -0.1116
vn -0.1855 0.9824 0.0208
vn -0.1831 0.9700 0.1601
vn 0.7528 0.0000 -0.6582
vn -0.7337 0.5559 0.3908
vn -0.7939 0.6015 0.0892
vn -0.1846 0.9779 0.0983
vn 0.8826 0.0000 -0.4701
vn 0.5121 0.0000 -0.8589
vn -0.1771 0.9383 0.2970
vn -0.6539 0.4954 0.5717
vn -0.4775 0.3617 -0.8007
vn -0.0000 0.0000 1.0000
vn 0.9938 0.0000 0.1116
vn -0.1855 0.9824 -0.0208
vn -0.1831 0.9700 -0.1601
vn 0.7528 0.0000 0.6582
vn -0.7337 0.5559 -0.3908
vn -0.7939 0.6015 -0.0892
vn -0.1846 0.9779 -0.0983
vn 0.8826 0.0000 0.4701
vn 0.5121 0.0000 0.8589
vn -0.1771 0.9383 -0.2970
vn -0.6539 0.4954 -0.5717
usemtl Material
s off
f 19/1/1 17/2/1 3/3/1 4/4/1
f 4/4/2 3/3/2 1/5/2 2/6/2
f 16/7/3 14/8/3 6/9/3 8/10/3
f 14/8/4 15/11/4 7/12/4 6/9/4
f 20/13/5 17/14/5 9/15/5 12/16/5
f 18/17/6 20/13/6 12/16/6 10/18/6
f 13/19/7 15/20/7 9/21/7 11/22/7
f 5/23/8 7/24/8 15/20/8 13/19/8
f 12/16/9 9/15/9 15/11/9 14/8/9
f 10/18/10 12/16/10 14/8/10 16/7/10
f 2/6/11 1/5/11 20/13/11 18/17/11
f 1/5/12 3/25/12 17/14/12 20/13/12
f 11/22/13 9/21/13 17/2/13 19/1/13
f 35/26/14 24/27/14 23/28/14 33/29/14
f 24/27/15 22/30/15 21/31/15 23/28/15
f 32/32/16 8/10/16 6/9/16 30/33/16
f 30/33/17 6/9/17 7/12/17 31/34/17
f 36/35/18 28/36/18 25/37/18 33/38/18
f 34/39/19 26/40/19 28/36/19 36/35/19
f 29/41/20 27/42/20 25/43/20 31/44/20
f 5/23/21 29/41/21 31/44/21 7/24/21
f 28/36/22 30/33/22 31/34/22 25/37/22
f 26/40/23 32/32/23 30/33/23 28/36/23
f 22/30/24 34/39/24 36/35/24 21/31/24
f 21/31/25 36/35/25 33/38/25 23/45/25
f 27/42/26 35/26/26 33/29/26 25/43/26
